PathFileType	4	(X/Y/Z)	C:\Users\WrightLab\Desktop\Jo\P1_boxCal26.trc
DataRate	CameraRate	NumFrames	NumMarkers	Units	OrigDataRate	OrigDataStartFrame	OrigNumFrames
100.00	100.00	       9	19	mm	100.00	167	       664
Frame#	Time	Headset_Front			Headset_Back			Headset_Left			Headset_Right			Left_Shoulder			Right_Shoulder			Sternum			C7			Left Elbow			Right Elbow			Left Wrist			Right Wrist			Left ASIS			Right ASIS			S2			Left Knee			Right Knee			Left Ankle			Right Ankle			
		X1	Y1	Z1	X2	Y2	Z2	X3	Y3	Z3	X4	Y4	Z4	X5	Y5	Z5	X6	Y6	Z6	X7	Y7	Z7	X8	Y8	Z8	X9	Y9	Z9	X10	Y10	Z10	X11	Y11	Z11	X12	Y12	Z12	X13	Y13	Z13	X14	Y14	Z14	X15	Y15	Z15	X16	Y16	Z16	X17	Y17	Z17	X18	Y18	Z18	X19	Y19	Z19	

167	1.660	-674.63873	1408.53882	1201.32117	-845.46832	1527.04236	1295.56738	-895.21472	1439.63037	1160.30518				-1035.28845	1309.90369	1291.55994	-659.33429	1255.19434	1320.57727				-863.02386	1312.60339	1415.65369	-1148.76123	1010.07703	1359.33533	-595.62585	994.06708	1417.66797	-1088.65442	885.23285	1162.46375	-503.11823	769.66498	1348.70190	-964.25958	893.17151	1197.46411	-764.12939	873.80109	1218.62500	-899.83044	931.33295	1521.83459	-1091.79907	499.07938	1241.11902	-739.30792	462.85626	1376.44507	-821.39258	93.20958	1576.05029				
168	1.670				-847.83673	1526.11133	1289.07397	-897.32147	1438.87646	1153.69714				-1037.87732	1308.39807	1283.46021	-662.02118	1254.42786	1315.55188				-866.48505	1311.45703	1408.66101	-1151.18579	1008.18414	1349.71802	-599.07220	994.25128	1414.19714	-1089.06445	883.14917	1156.25220	-506.27136	769.27509	1346.22144	-966.12183	893.88165	1190.17651	-764.55341	873.23682	1212.50378	-902.45758	929.44965	1513.96558	-1092.47412	498.31403	1229.75500	-740.55328	462.13885	1372.81958	-1128.45166	151.42427	1121.84680				
169	1.680	-679.41022	1406.12415	1188.82056	-850.45758	1525.29663	1282.54272	-899.56622	1437.95508	1147.01050				-1040.59668	1306.84680	1275.30835	-664.81622	1253.48560	1310.05103				-870.16400	1310.32532	1401.67029	-1153.56665	1006.23438	1340.22644	-602.79126	993.87640	1409.87695	-1089.20276	882.61719	1144.47803	-508.86438	768.98602	1343.12927				-767.36847	871.55475	1205.70435	-905.42792	927.72626	1507.01648	-1092.65649	497.14426	1219.61792	-742.31097	460.89032	1369.13562	-1126.61255	151.15906	1109.11340				
170	1.690	-681.43646	1405.18469	1182.60229	-853.23792	1524.59241	1275.99194	-901.84918	1437.12695	1140.25586				-1043.39319	1305.36926	1267.15430	-667.74414	1252.89001	1304.76587				-873.66357	1309.07397	1394.70203	-1155.81250	1004.15912	1330.54846	-605.49091	993.71088	1405.78333	-1090.43799	881.32367	1134.76624	-512.32001	768.38483	1340.75842				-768.02667	870.59155	1198.08362	-909.64642	927.11023	1499.64966	-1093.37610	495.83069	1209.65649	-743.30200	460.55347	1365.39368	-1124.82690	149.36514	1098.44958				
171	1.700	-684.31946	1403.70764	1176.53064	-855.70258	1523.73535	1269.32617	-904.23651	1436.26489	1133.52820				-1046.32397	1303.95483	1259.04761	-670.68573	1252.33643	1298.23352				-877.31555	1307.77795	1387.77087	-1158.14746	1002.13794	1320.98230	-609.12360	993.08008	1401.07678	-1089.81067	880.41620	1125.36401	-515.98438	766.98944	1337.50562				-769.40479	870.04932	1191.61499	-913.08966	925.71295	1491.79199	-1093.70410	494.77686	1198.21838	-745.82007	459.78217	1361.71411	-1122.53198	147.81769	1086.90125				
172	1.710	-686.90747	1402.42456	1170.95691	-857.97455	1522.79773	1262.58057	-906.59863	1435.30945	1126.66772				-1049.23169	1302.35278	1250.82458	-673.74341	1251.66760	1291.89282				-880.91815	1306.41333	1380.73401	-1160.81970	1000.22198	1311.23645	-612.84723	992.63153	1395.85706	-1090.56714	879.76190	1115.59680	-519.79279	766.73157	1334.68384				-771.22754	869.18878	1185.07458	-916.41693	924.17175	1482.94788	-1093.89795	493.28793	1188.03284	-746.52954	459.27130	1358.55090	-1121.06616	144.95836	1080.06201				
173	1.720	-689.23273	1401.11536	1164.50659	-860.52399	1522.00012	1255.79858	-909.28217	1434.75781	1119.92151				-1052.29016	1300.80164	1242.70300	-676.96362	1251.31067	1285.93994				-884.71857	1305.05811	1373.70251	-1163.29688	998.23486	1301.55945	-616.35211	992.42206	1390.99829	-1089.99146	878.68927	1105.70422	-523.60883	765.42432	1331.45142	-973.71448	884.83325	1149.67896	-772.79327	868.33411	1178.37476	-920.11163	922.76044	1475.79663	-1094.05127	492.21533	1176.78894	-748.82239	457.88464	1354.76611	-1119.72278	142.40657	1072.12439				
174	1.730				-863.24512	1521.43750	1248.95972	-911.99176	1433.93408	1113.04248				-1055.61426	1299.43604	1234.63245	-680.28491	1250.55420	1279.79675				-888.71625	1303.79248	1366.73059	-1165.91797	996.16736	1291.72913	-619.44421	992.37701	1385.69067	-1090.02222	876.57654	1095.78931	-527.71362	765.22797	1328.08044	-972.47961	884.25177	1139.34363	-774.12195	867.75916	1172.41528	-923.23492	920.66235	1466.76331	-1094.15906	491.08704	1165.32031	-750.40448	458.15433	1350.61169	-1118.32715	139.18129	1065.19043				
175	1.740	-695.42059	1398.27295	1151.98291	-866.23560	1521.01111	1242.11719	-914.60126	1433.44666	1106.21594				-1058.83008	1297.82922	1226.52124	-683.67694	1250.05359	1274.33154				-892.85010	1302.57947	1359.69080	-1168.23303	993.85199	1281.79016	-623.60175	991.57495	1379.46619	-1089.86694	876.12677	1086.23096	-532.10522	764.08691	1324.23010				-775.67859	866.83258	1164.95691	-927.04498	919.10828	1458.56287	-1094.37598	489.24182	1155.78479	-751.59454	456.72681	1345.59912	-1117.57166	135.35292	1060.26257				
